PathFileType	4	(X/Y/Z)	staticVerif.trc	
DataRate	CameraRate	NumFrames	NumMarkers	Units	OrigDataRate	OrigDataStartFrame	OrigNumFrames	
100.00	100.00	4	125	mm	100.00	156	9	
Frame#	Time	LASI			RASI			LPSI			RPSI			LTHI			LKNE			LTHAP			LTHAD			LTHLD			LKNM			LTIB			LANK			LTIAP			LTIAD			LMED			LHEE			LTOE			LCALC			RTHI			RKNE			RTHAP			RTHAD			RTHLD			RKNM			RTIB			RANK			RTIAP			RTIAD			RMED			RHEE			RTOE			RCALC			MAN			T10			T2			PELVISO			PELVISA			PELVISL			PELVISP			LFEMURO			LFEMURA			LFEMURL			LFEMURP			LTIBIAO			LTIBIAA			LTIBIAL			LTIBIAP			LFOOTO			LFOOTA			LFOOTL			LFOOTP			LTOESO			LTOESA			LTOESL			LTOESP			RFEMURO			RFEMURA			RFEMURL			RFEMURP			RTIBIAO			RTIBIAA			RTIBIAL			RTIBIAP			RFOOTO			RFOOTA			RFOOTL			RFOOTP			RTOESO			RTOESA			RTOESL			RTOESP			LHJC			LKJC			RHJC			RKJC			LAJC			RAJC			C7			CLAV			STRN			LSHO			LELB			LWRA			LWRB			LFIN			RSHO			RELB			RWRA			RWRB			RFIN			LFHD			LBHD			RFHD			RBHD			SACR			midASIS			pelvisCentre			midHJC			midTop			midBottom			midFront			OT			C7o			LVWM			RVWM			LSJC			RSJC			midFH			midBH			midLH			HC			LMWP			LCVM			LEJC			LWJC			LHO			RMWP			RCVM			REJC			RWJC			RHO			LKJC_MID			RKJC_MID			LAJC_MID			RAJC_MID			
		X1	Y1	Z1	X2	Y2	Z2	X3	Y3	Z3	X4	Y4	Z4	X5	Y5	Z5	X6	Y6	Z6	X7	Y7	Z7	X8	Y8	Z8	X9	Y9	Z9	X10	Y10	Z10	X11	Y11	Z11	X12	Y12	Z12	X13	Y13	Z13	X14	Y14	Z14	X15	Y15	Z15	X16	Y16	Z16	X17	Y17	Z17	X18	Y18	Z18	X19	Y19	Z19	X20	Y20	Z20	X21	Y21	Z21	X22	Y22	Z22	X23	Y23	Z23	X24	Y24	Z24	X25	Y25	Z25	X26	Y26	Z26	X27	Y27	Z27	X28	Y28	Z28	X29	Y29	Z29	X30	Y30	Z30	X31	Y31	Z31	X32	Y32	Z32	X33	Y33	Z33	X34	Y34	Z34	X35	Y35	Z35	X36	Y36	Z36	X37	Y37	Z37	X38	Y38	Z38	X39	Y39	Z39	X40	Y40	Z40	X41	Y41	Z41	X42	Y42	Z42	X43	Y43	Z43	X44	Y44	Z44	X45	Y45	Z45	X46	Y46	Z46	X47	Y47	Z47	X48	Y48	Z48	X49	Y49	Z49	X50	Y50	Z50	X51	Y51	Z51	X52	Y52	Z52	X53	Y53	Z53	X54	Y54	Z54	X55	Y55	Z55	X56	Y56	Z56	X57	Y57	Z57	X58	Y58	Z58	X59	Y59	Z59	X60	Y60	Z60	X61	Y61	Z61	X62	Y62	Z62	X63	Y63	Z63	X64	Y64	Z64	X65	Y65	Z65	X66	Y66	Z66	X67	Y67	Z67	X68	Y68	Z68	X69	Y69	Z69	X70	Y70	Z70	X71	Y71	Z71	X72	Y72	Z72	X73	Y73	Z73	X74	Y74	Z74	X75	Y75	Z75	X76	Y76	Z76	X77	Y77	Z77	X78	Y78	Z78	X79	Y79	Z79	X80	Y80	Z80	X81	Y81	Z81	X82	Y82	Z82	X83	Y83	Z83	X84	Y84	Z84	X85	Y85	Z85	X86	Y86	Z86	X87	Y87	Z87	X88	Y88	Z88	X89	Y89	Z89	X90	Y90	Z90	X91	Y91	Z91	X92	Y92	Z92	X93	Y93	Z93	X94	Y94	Z94	X95	Y95	Z95	X96	Y96	Z96	X97	Y97	Z97	X98	Y98	Z98	X99	Y99	Z99	X100	Y100	Z100	X101	Y101	Z101	X102	Y102	Z102	X103	Y103	Z103	X104	Y104	Z104	X105	Y105	Z105	X106	Y106	Z106	X107	Y107	Z107	X108	Y108	Z108	X109	Y109	Z109	X110	Y110	Z110	X111	Y111	Z111	X112	Y112	Z112	X113	Y113	Z113	X114	Y114	Z114	X115	Y115	Z115	X116	Y116	Z116	X117	Y117	Z117	X118	Y118	Z118	X119	Y119	Z119	X120	Y120	Z120	X121	Y121	Z121	X122	Y122	Z122	X123	Y123	Z123	X124	Y124	Z124	X125	Y125	Z125	

5	0.040	654.19049	356.93945	1041.71118	653.19623	145.78528	1040.45251	467.59506	292.24567	1058.86450	468.69193	210.49834	1053.91284	523.01343	483.29117	745.38251	520.59894	420.30954	576.18811	659.27655	374.49982	826.79572	630.60461	361.18628	679.11176	537.32233	428.73212	705.26508	529.80310	305.84546	559.77924	467.54605	499.51401	390.23682	492.43689	423.96814	161.16188	556.90979	369.69434	443.99286	541.62329	374.96954	315.74933	519.88403	335.84479	174.35294	446.05350	373.94058	149.05415	605.34949	394.50900	152.19214	441.33072	377.56885	125.31099	586.91754	22.70732	756.90369	529.49713	96.09179	578.85492	669.93274	143.41087	825.63232	640.61121	151.28580	678.05261	575.57788	77.43084	720.78796	531.04932	212.93918	567.58368	475.27551	22.30332	376.50201	493.30246	98.11874	163.29976	564.25024	148.09250	430.15439	549.36884	145.68613	317.90848	523.50946	185.35060	172.32634	446.80527	150.76498	156.94598	603.98364	102.37654	147.63127	443.47162	148.76190	131.39737	609.62628	259.10001	1475.00903	431.34729	256.15842	1240.33728	439.28040	260.22855	1514.97778	595.26300	251.84900	969.37000	759.05603	251.15843	955.85669	596.03662	416.19525	970.34808	608.77179	250.81064	1133.16162	525.20099	363.07800	567.98401	926.65686	405.03705	500.50024	488.77054	769.12793	603.72955	595.82281	334.02014	970.04077	505.58102	381.76700	167.47900	889.19257	499.25330	154.16837	388.98245	765.15417	191.08156	525.20166	363.07782	567.98340	615.02002	386.15399	157.15199	615.67249	381.10269	310.71655	595.35437	538.45416	162.24525	462.63611	366.47754	157.15224	665.81403	392.71301	157.15199	666.03149	391.02924	208.34015	659.25885	443.47971	158.84975	615.01941	386.15421	157.15207	530.27301	154.51500	573.21899	925.94470	143.08499	509.19528	539.12518	555.04614	556.42029	594.70374	169.67789	968.69910	507.45203	138.98100	167.52800	891.90405	7.57164	150.93376	637.92426	523.47736	145.46623	530.27271	154.51508	573.21881	622.20001	114.19400	156.19200	625.05792	123.47581	320.62744	670.57935	271.35144	146.48018	464.76874	162.65768	156.19258	674.67700	98.03950	156.19200	675.62964	101.13343	211.00378	690.80347	150.42528	152.95473	622.19995	114.19405	156.19220	595.82224	334.02186	970.04020	525.19982	363.07843	567.98346	594.70269	169.68038	968.69919	530.27341	154.51728	573.21952	505.58081	381.76719	167.47882	507.45287	138.98233	167.52836																																																				468.14349	251.37200	1056.38867	653.69336	251.36237	1041.08185	560.91843	251.36718	1048.73526	595.26246	251.85112	969.36970				215.67365	128.07921	620.16864																																																																525.20102	363.07749	567.98367	530.27322	154.51548	573.21930	505.58102	381.76685	167.47893	507.45270	138.98184	167.52819 
6	0.050	654.16852	356.97476	1041.70752	653.17035	145.80894	1040.45996	467.57712	292.28186	1058.86377	468.65897	210.53122	1053.91492	523.00232	483.31744	745.38000	520.57611	420.32559	576.18469	659.23224	374.51263	826.79291	630.58246	361.19705	679.10034	537.30475	428.75171	705.26123	529.77722	305.86078	559.77930	467.53119	499.52487	390.22943	492.43661	423.97394	161.15874	556.89203	369.70667	443.99466	541.61072	374.97485	315.75040	519.87695	335.84738	174.35304	446.05066	373.94498	149.04965	605.34558	394.51108	152.19202	441.32590	377.57224	125.30621	586.87616	22.72807	756.90936	529.47565	96.11585	578.85968	669.90479	143.42670	825.63953	640.59387	151.29680	678.05621	575.54779	77.44849	720.78680	531.04205	212.96274	567.58527	475.25415	22.32411	376.50552	493.29999	98.12481	163.30338	564.24426	148.10632	430.15884	549.36926	145.69734	317.91272	523.51385	185.35510	172.32501	446.80640	150.77147	156.94345	603.98346	102.37685	147.63220	443.47336	148.76892	131.39577	609.61542	259.14688	1475.00439	431.32556	256.20087	1240.34485	439.26108	260.27762	1514.98157	595.23602	251.87799	969.37097	759.02905	251.18335	955.85773	596.01337	416.22427	970.34485	608.74475	250.84354	1133.16260	525.17102	363.09299	567.98297	926.62988	405.00668	500.48859	488.78372	769.14856	603.70862	595.79828	334.04819	970.03973	505.57898	381.77100	167.47600	889.19446	499.24707	154.18857	388.98856	765.16187	191.05893	525.17120	363.09332	567.98230	615.01801	386.15601	157.15199	615.66626	381.10965	310.71674	595.35425	538.45654	162.23982	462.63385	366.48154	157.14873	665.81299	392.71500	157.15300	666.02905	391.03287	208.34122	659.25842	443.48181	158.84894	615.01831	386.15686	157.15192	530.26001	154.53999	573.21997	925.93298	143.04939	509.21503	539.17212	555.06921	556.40796	594.67462	169.70691	968.70258	507.45404	138.98700	167.52901	891.89075	7.52997	150.95795	637.97400	523.46625	145.45151	530.25977	154.54062	573.21991	622.20203	114.19400	156.19400	625.06006	123.48183	320.62912	670.58813	271.34900	146.47638	464.77283	162.66446	156.19250	674.67798	98.03720	156.19501	675.63068	101.13314	211.00668	690.80670	150.42218	152.95581	622.20160	114.19402	156.19450	595.82224	334.02186	970.04020	525.19982	363.07843	567.98346	594.70269	169.68038	968.69919	530.27341	154.51728	573.21952	505.58081	381.76719	167.47882	507.45287	138.98233	167.52836																																																				468.11804	251.40654	1056.38934	653.66943	251.39185	1041.08374	560.89374	251.39920	1048.73654	595.26246	251.85112	969.36970				215.66278	128.10043	620.17242																																																																525.17667	363.09317	567.98199	530.25885	154.53929	573.22247	505.57728	381.77178	167.47724	507.45340	138.98706	167.52948 
7	0.060	654.14667	357.01089	1041.70361	653.14465	145.83289	1040.46765	467.55945	292.31876	1058.86316	468.62589	210.56474	1053.91711	522.99133	483.34430	745.37744	520.55298	420.34192	576.18115	659.18756	374.52570	826.78992	630.56030	361.20807	679.08826	537.28705	428.77164	705.25726	529.75092	305.87634	559.77930	467.51605	499.53592	390.22192	492.43634	423.97989	161.15555	556.87402	369.71921	443.99649	541.59802	374.98029	315.75150	519.86975	335.85001	174.35313	446.04776	373.94949	149.04506	605.34161	394.51321	152.19188	441.32095	377.57571	125.30136	586.83429	22.74927	756.91510	529.45410	96.14045	578.86450	669.87683	143.44279	825.64679	640.57660	151.30798	678.05981	575.51746	77.46652	720.78558	531.03510	212.98685	567.58698	475.23248	22.34544	376.50912	493.29749	98.13105	163.30710	564.23840	148.12045	430.16339	549.36987	145.70888	317.91705	523.51843	185.35974	172.32368	446.80759	150.77815	156.94087	603.98328	102.37719	147.63315	443.47519	148.77614	131.39413	609.60455	259.19482	1475.00024	431.30389	256.24426	1240.35229	439.24130	260.32776	1514.98499	595.20697	251.90601	969.37201	758.99945	251.20685	955.85223	595.98840	416.25232	970.33972	608.72229	250.87727	1133.16309	525.14099	363.10901	567.98102	926.60327	404.97696	500.47864	488.79712	769.17017	603.68719	595.77118	334.07654	970.03815	505.57501	381.77499	167.47200	889.19470	499.23956	154.20580	388.99417	765.16992	191.03584	525.14087	363.10883	567.98016	615.01501	386.15900	157.15199	615.65771	381.11734	310.71692	595.35327	538.46008	162.23442	462.63055	366.48679	157.14388	665.81000	392.71600	157.15500	666.02423	391.03546	208.34328	659.25610	443.48300	158.84914	615.01520	386.15860	157.15230	530.24799	154.56500	573.22198	925.92261	143.01567	509.23816	539.21838	555.09247	556.39795	594.64404	169.73499	968.70752	507.45703	138.99200	167.53000	891.87805	7.48598	150.98239	638.02600	523.45374	145.43713	530.24750	154.56483	573.22107	622.20300	114.19400	156.19600	625.06165	123.48777	320.63077	670.59698	271.34625	146.47252	464.77625	162.67230	156.19287	674.67902	98.03450	156.19701	675.63190	101.13242	211.00856	690.81030	150.41855	152.95584	622.20343	114.19392	156.19597	595.82224	334.02186	970.04020	525.19982	363.07843	567.98346	594.70269	169.68038	968.69919	530.27341	154.51728	573.21952	505.58081	381.76719	167.47882	507.45287	138.98233	167.52836																																																				468.09267	251.44175	1056.39014	653.64566	251.42189	1041.08563	560.86916	251.43182	1048.73788	595.26246	251.85112	969.36970				215.65195	128.12213	620.17615																																																																525.15195	363.10911	567.98022	530.24460	154.56364	573.22574	505.57347	381.77685	167.47552	507.45417	138.99241	167.53082 
8	0.070	654.12494	357.04791	1041.69958	653.11926	145.85709	1040.47559	467.54199	292.35635	1058.86243	468.59262	210.59889	1053.91943	522.98047	483.37180	745.37476	520.52954	420.35855	576.17755	659.14246	374.53906	826.78674	630.53815	361.21936	679.07538	537.26923	428.79196	705.25317	529.72424	305.89221	559.77917	467.50064	499.54712	390.21432	492.43610	423.98596	161.15230	556.85577	369.73199	443.99832	541.58508	374.98578	315.75262	519.86237	335.85269	174.35324	446.04480	373.95410	149.04039	605.33752	394.51538	152.19173	441.31589	377.57925	125.29642	586.79193	22.77090	756.92090	529.43237	96.16563	578.86945	669.84875	143.45918	825.65417	640.55945	151.31935	678.06348	575.48694	77.48494	720.78424	531.02838	213.01151	567.58868	475.21048	22.36729	376.51285	493.29495	98.13747	163.31096	564.23279	148.13492	430.16800	549.37079	145.72070	317.92148	523.52319	185.36452	172.32231	446.80887	150.78502	156.93825	603.98309	102.37753	147.63412	443.47705	148.78357	131.39250	609.59375	259.24380	1474.99646	431.28226	256.28864	1240.35974	439.22107	260.37897	1514.98828	595.17999	251.93500	969.37299	758.97247	251.23166	955.85327	595.96521	416.28131	970.33624	608.69525	250.91045	1133.16406	525.10999	363.12601	567.97998	926.57532	404.94693	500.46649	488.81100	769.19287	603.66644	595.74597	334.10620	970.03705	505.57196	381.78000	167.47000	889.19604	499.23303	154.22639	389.00061	765.17908	191.01372	525.10974	363.12595	567.98010	615.01300	386.16101	157.15300	615.65063	381.12454	310.71811	595.35388	538.46259	162.22964	462.62817	366.49158	157.14063	665.80701	392.71799	157.15700	666.01953	391.03915	208.34534	659.25397	443.48514	158.84921	615.01208	386.16150	157.15288	530.23499	154.59100	573.22302	925.91089	142.97881	509.25812	539.26764	555.11646	556.38611	594.61481	169.76427	968.71106	507.45999	138.99899	167.53101	891.86548	7.44463	151.00717	638.07727	523.44336	145.42212	530.23511	154.59178	573.22217	622.20502	114.19500	156.19800	625.06378	123.49461	320.63245	670.60522	271.34494	146.46890	464.78015	162.67955	156.19283	674.67999	98.03350	156.20000	675.63293	101.13337	211.01144	690.81335	150.41678	152.95697	622.20508	114.19501	156.19827	595.82224	334.02186	970.04020	525.19982	363.07843	567.98346	594.70269	169.68038	968.69919	530.27341	154.51728	573.21952	505.58081	381.76719	167.47882	507.45287	138.98233	167.52836																																																				468.06731	251.47762	1056.39093	653.62210	251.45250	1041.08759	560.84470	251.46506	1048.73926	595.26246	251.85112	969.36970				215.64113	128.14432	620.17987																																																																525.12689	363.12536	567.97836	530.23038	154.58856	573.22907	505.56958	381.78202	167.47377	507.45501	138.99792	167.53222 
